# xmcd
#
# Track frame offsets:
#	150
#	23133
#	40690
#	62865
#	84963
#	103760
#	124738
#	141078
#	156773
#	181718
#
# Disc length: 2765 seconds
#
# Revision: 3115956667
# Processed by: cddbd v1.5.2PL0 Copyright (c) Steve Scherf et al.
# Submitted via: EZCDAudioConverter 8.0.2.1
#
DISCID=780acb0a
DTITLE=Khánh Ly, Khánh Hà, Tuấn Ngọc - Rồi Mai Tôi Đưa Em
DYEAR=1989
DGENRE=Contemporary Pop
TTITLE0=Khánh Hà - Nuối tiếc
TTITLE1=Tuấn Ngọc - Nếu xa nhau
TTITLE2=Khánh Ly - Lệ đá
TTITLE3=Khánh Hà - Giọt nước mắt ngà
TTITLE4=Tuấn Ngọc - Chiều nay không có em
TTITLE5=Khánh Ly - Mùa thu trong mưa
TTITLE6=Khánh Hà - Tan tác
TTITLE7=Tuấn Ngọc - Trở về bến mơ
TTITLE8=Khánh Ly - Rồi Mai Tôi Đưa Em
TTITLE9=Tuấn Ngọc - Thuở ban đầu
EXTD=
EXTT0=
EXTT1=
EXTT2=
EXTT3=
EXTT4=
EXTT5=
EXTT6=
EXTT7=
EXTT8=
EXTT9=
PLAYORDER=
